# Wavefront Obj file
# 
# verts: 24 uv-s: 64
mtllib keyboardLayout.mtl

g pCube1
#pivot 0.000000 0.040884 0.000000

v 0.688716 0.016057 -0.277437
v -0.705934 0.016057 -0.277437
v 0.688716 0.000421 -0.278818
v 0.688716 0.000458 -0.347765
v 0.860895 0.000458 -0.347765
v 0.860895 0.000421 -0.278819
v -0.860895 0.000458 -0.347765
v -0.705934 0.000458 -0.347765
v -0.705934 0.000421 -0.278818
v -0.860895 0.000421 -0.278819
v -0.860895 0.000056 0.343081
v 0.860895 0.000056 0.343081
v -0.860895 0.033903 0.346384
v 0.860895 0.033903 0.346384
v -0.860895 0.093329 -0.343081
v -0.705934 0.019126 -0.346384
v -0.860895 0.016057 -0.277437
v 0.860895 0.016057 -0.277437
v 0.860895 0.093329 -0.343081
v 0.688716 0.019126 -0.346384
v 0.835895 0.091182 -0.318174
v 0.835895 0.036050 0.321476
v -0.835895 0.091182 -0.318174
v -0.835895 0.036050 0.321476
# 24 positions

vt 0.306195 0.057640
vt 0.272320 0.057640
vt 0.272320 0.023700
vt 0.306195 0.023700
vt 0.328184 0.023700
vt 0.358731 0.023700
vt 0.358731 0.057574
vt 0.328184 0.057574
vt 0.088244 0.054867
vt 0.054437 0.054843
vt 0.054462 0.037161
vt 0.088156 0.040047
vt 0.253155 0.051067
vt 0.220362 0.051067
vt 0.220362 0.027648
vt 0.253155 0.027648
vt 0.140344 0.054843
vt 0.106537 0.054867
vt 0.106625 0.040047
vt 0.140319 0.037161
vt 0.197306 0.051067
vt 0.160869 0.051067
vt 0.160869 0.027648
vt 0.197306 0.027648
vt 0.023605 0.864073
vt 0.023605 0.813347
vt 0.688083 0.813347
vt 0.688083 0.864073
vt 0.671643 0.459209
vt 0.671643 0.773452
vt 0.046271 0.773452
vt 0.046271 0.459209
vt 0.041543 0.887964
vt 0.672009 0.887964
vt 0.672009 0.968864
vt 0.608963 0.968864
vt 0.608963 0.952586
vt 0.098285 0.952586
vt 0.098285 0.968864
vt 0.041543 0.968864
vt 0.965877 0.252950
vt 0.679296 0.226587
vt 0.679954 0.194492
vt 0.937091 0.182836
vt 0.937335 0.168015
vt 0.965869 0.165077
vt 0.644473 0.265668
vt 0.901611 0.277325
vt 0.902268 0.309420
vt 0.615687 0.335782
vt 0.615695 0.247910
vt 0.644230 0.250848
vt 0.092017 0.122234
vt 0.092017 0.089734
vt 0.533861 0.089733
vt 0.533861 0.122234
vt 0.588410 0.122234
vt 0.588410 0.414496
vt 0.042923 0.414496
vt 0.042923 0.122234
vt 0.680994 0.446972
vt 0.680994 0.785688
vt 0.036919 0.785688
vt 0.036919 0.446972
# 64 texture coordinates

vn 0.000000 -1.000000 -0.000543
vn 0.000000 -1.000000 -0.000543
vn 0.000000 -1.000000 -0.000543
vn 0.000000 -1.000000 -0.000543
vn -0.000000 -1.000000 -0.000543
vn -0.000000 -1.000000 -0.000543
vn -0.000000 -1.000000 -0.000543
vn -0.000000 -1.000000 -0.000543
vn -1.000000 0.000002 -0.000000
vn -1.000000 0.000002 -0.000000
vn -1.000000 0.000002 -0.000000
vn -1.000000 0.000002 -0.000000
vn -0.000000 -0.087983 0.996122
vn -0.000000 -0.087983 0.996122
vn -0.000000 -0.087983 0.996122
vn -0.000000 -0.087983 0.996122
vn 1.000000 0.000002 -0.000001
vn 1.000000 0.000002 -0.000001
vn 1.000000 0.000002 -0.000001
vn 1.000000 0.000002 -0.000001
vn 0.000000 -0.087983 0.996122
vn 0.000000 -0.087983 0.996122
vn 0.000000 -0.087983 0.996122
vn 0.000000 -0.087983 0.996122
vn 0.000000 -0.097114 0.995273
vn 0.000000 -0.097114 0.995273
vn 0.000000 -0.097114 0.995273
vn 0.000000 -0.097114 0.995273
vn -0.000000 0.996306 0.085873
vn -0.000000 0.996306 0.085873
vn 0.000000 0.996306 0.085873
vn 0.000000 0.996306 0.085873
vn 0.000000 0.046823 -0.998903
vn 0.000000 0.046823 -0.998903
vn 0.000000 0.046823 -0.998903
vn 0.000000 0.046823 -0.998903
vn 0.000000 0.046823 -0.998903
vn 0.000000 0.046823 -0.998903
vn 0.000000 0.046823 -0.998903
vn 0.000000 0.046823 -0.998903
vn 1.000000 0.000000 0.000000
vn 1.000000 0.000000 0.000000
vn 1.000000 0.000000 0.000000
vn 1.000000 0.000000 0.000000
vn 1.000000 0.000000 0.000000
vn 1.000000 0.000000 0.000000
vn -1.000000 0.000000 0.000000
vn -1.000000 0.000000 0.000000
vn -1.000000 0.000000 0.000000
vn -1.000000 0.000000 0.000000
vn -1.000000 0.000000 0.000000
vn -1.000000 0.000000 0.000000
vn 0.000000 -0.999634 -0.027044
vn 0.000000 -0.999634 -0.027044
vn 0.000000 -0.999634 -0.027044
vn 0.000000 -0.999634 -0.027044
vn 0.000000 -0.999634 -0.027044
vn 0.000000 -0.999634 -0.027044
vn 0.000000 -0.999634 -0.027044
vn 0.000000 -0.999634 -0.027044
vn -0.000000 0.996306 0.085873
vn -0.000000 0.996306 0.085873
vn 0.000000 0.996306 0.085873
vn 0.000000 0.996306 0.085873
# 64 normals

usemtl lambert1
s 1
f 3/1/1 4/2/2 5/3/3 6/4/4
s 2
f 7/5/5 8/6/6 9/7/7 10/8/8
s 3
f 1/9/9 20/10/10 4/11/11 3/12/12
s 4
f 2/13/13 17/14/14 10/15/15 9/16/16
s 5
f 16/17/17 2/18/18 9/19/19 8/20/20
s 6
f 18/21/21 1/22/22 3/23/23 6/24/24
s 7
f 12/25/25 14/26/26 13/27/27 11/28/28
s 8
f 22/29/29 21/30/30 23/31/31 24/32/32
f 14/61/61 19/62/62 21/30/30 22/29/29
f 19/62/62 15/63/63 23/31/31 21/30/30
f 15/63/63 13/64/64 24/32/32 23/31/31
f 13/64/64 14/61/61 22/29/29 24/32/32
s 9
f 15/33/33 19/34/34 5/35/35 4/36/36 20/37/37 16/38/38 8/39/39 7/40/40
s 10
f 19/41/41 14/42/42 12/43/43 18/44/44 6/45/45 5/46/46
s 11
f 17/47/47 11/48/48 13/49/49 15/50/50 7/51/51 10/52/52
s 12
f 2/53/53 16/54/54 20/55/55 1/56/56 18/57/57 12/58/58 11/59/59 17/60/60

# 16 faces
