# This file uses centimeters as units for non-parametric coordinates.

mtllib MonitorBevel.mtl
g default
v -1.854904 3.206375 -11.176407
v -1.854904 3.206375 11.176407
v -1.854904 14.737984 -11.176407
v -1.854904 14.737984 11.176407
v -0.135979 14.737984 -11.176407
v -0.135979 14.737984 11.176407
v -0.135979 3.206375 -11.176407
v -0.135979 3.206375 11.176407
v -1.854904 3.533366 -10.783966
v -1.854904 3.533366 10.783325
v -1.854904 14.410994 10.783325
v -1.854904 14.410994 -10.783966
v 0.461670 0.482603 -1.063095
v 0.461670 0.482603 1.063126
v 0.461670 8.855924 -1.063095
v 0.461670 8.855924 1.063126
v 2.587887 8.855924 -1.063095
v 2.587887 8.855924 1.063126
v 2.587887 0.482603 -1.063095
v 2.587887 0.482603 1.063126
v -4.121029 -0.008643 -5.116440
v -4.121029 -0.008643 5.116501
v -4.121029 0.840970 -5.116440
v -4.121029 0.840970 5.116501
v 4.121029 0.840970 -5.116440
v 4.121029 0.840970 5.116501
v 4.121029 -0.008643 -5.116440
v 4.121029 -0.008643 5.116501
v -0.685127 6.209470 -3.542587
v -0.685127 6.209470 3.542633
v -0.685127 11.734889 -3.542587
v -0.685127 11.734889 3.542633
v 1.242107 11.734889 -3.542587
v 1.242107 11.734889 3.542633
v 1.242107 6.209470 -3.542587
v 1.242107 6.209470 3.542633
vt 0.338252 0.512349
vt 0.338252 0.011078
vt 0.641810 0.011078
vt 0.641810 0.512349
vt 0.329127 0.521475
vt 0.329127 0.001953
vt 0.338252 0.011078
vt 0.338252 0.512349
vt 0.650935 0.001953
vt 0.641810 0.011078
vt 0.650935 0.521475
vt 0.641810 0.512349
vt 0.778039 0.521475
vt 0.778039 0.001953
vt 0.824963 0.001953
vt 0.824963 0.521475
vt 0.001953 0.521474
vt 0.001953 0.001953
vt 0.323762 0.001953
vt 0.323762 0.521474
vt 0.831300 0.521475
vt 0.831300 0.001953
vt 0.878224 0.001953
vt 0.878224 0.521475
vt 0.907387 0.674903
vt 0.954311 0.674903
vt 0.954311 0.996711
vt 0.907387 0.996711
vt 0.907387 0.351184
vt 0.954311 0.351184
vt 0.954311 0.672993
vt 0.907387 0.672993
vt 0.656300 0.001953
vt 0.714342 0.001953
vt 0.714342 0.349275
vt 0.656300 0.349275
vt 0.698148 0.718707
vt 0.756190 0.718707
vt 0.756190 0.776749
vt 0.698148 0.776749
vt 0.778039 0.523384
vt 0.836081 0.523384
vt 0.836081 0.870706
vt 0.778039 0.870706
vt 0.001953 0.862676
vt 0.001953 0.804634
vt 0.059995 0.804634
vt 0.059995 0.862676
vt 0.884561 0.001953
vt 0.942603 0.001953
vt 0.942603 0.349274
vt 0.884561 0.349274
vt 0.842713 0.523384
vt 0.900755 0.523384
vt 0.900755 0.870706
vt 0.842713 0.870706
vt 0.720974 0.281293
vt 0.720974 0.001953
vt 0.744167 0.001953
vt 0.744167 0.281293
vt 0.234018 0.802724
vt 0.234018 0.523384
vt 0.459011 0.523384
vt 0.459011 0.802724
vt 0.637279 0.998047
vt 0.637279 0.718707
vt 0.660471 0.718707
vt 0.660471 0.998047
vt 0.001953 0.802724
vt 0.001953 0.523384
vt 0.226946 0.523384
vt 0.226946 0.802724
vt 0.667713 0.943700
vt 0.667713 0.718707
vt 0.690906 0.718707
vt 0.690906 0.943700
vt 0.720974 0.508196
vt 0.720974 0.283203
vt 0.744167 0.283203
vt 0.744167 0.508196
vt 0.466083 0.716798
vt 0.466083 0.523384
vt 0.616917 0.523384
vt 0.616917 0.716798
vt 0.523148 0.912121
vt 0.523148 0.718707
vt 0.575758 0.718707
vt 0.575758 0.912121
vt 0.622061 0.716798
vt 0.622061 0.523384
vt 0.772895 0.523384
vt 0.772895 0.716798
vt 0.466083 0.912121
vt 0.466083 0.718707
vt 0.518693 0.718707
vt 0.518693 0.912121
vt 0.580213 0.718707
vt 0.632823 0.718707
vt 0.632823 0.869541
vt 0.580213 0.869541
vt 0.656300 0.351184
vt 0.708910 0.351184
vt 0.708910 0.502018
vt 0.656300 0.502018
vn -1.000000 0.000000 0.000000
vn -1.000000 0.000000 0.000000
vn -1.000000 0.000000 0.000000
vn -1.000000 0.000000 0.000000
vn -1.000000 0.000000 0.000000
vn -1.000000 0.000000 0.000000
vn -1.000000 0.000000 0.000000
vn -1.000000 0.000000 0.000000
vn -1.000000 0.000000 0.000000
vn -1.000000 0.000000 0.000000
vn -1.000000 0.000000 0.000000
vn -1.000000 0.000000 0.000000
vn -1.000000 0.000000 0.000000
vn -1.000000 0.000000 0.000000
vn -1.000000 0.000000 0.000000
vn -1.000000 0.000000 0.000000
vn -1.000000 0.000000 0.000000
vn -1.000000 0.000000 0.000000
vn -1.000000 0.000000 0.000000
vn -1.000000 0.000000 0.000000
vn 0.000000 1.000000 0.000000
vn 0.000000 1.000000 0.000000
vn 0.000000 1.000000 0.000000
vn 0.000000 1.000000 0.000000
vn 1.000000 0.000000 0.000000
vn 1.000000 0.000000 0.000000
vn 1.000000 0.000000 0.000000
vn 1.000000 0.000000 0.000000
vn 0.000000 -1.000000 0.000000
vn 0.000000 -1.000000 0.000000
vn 0.000000 -1.000000 0.000000
vn 0.000000 -1.000000 0.000000
vn 0.000000 0.000000 1.000000
vn 0.000000 0.000000 1.000000
vn 0.000000 0.000000 1.000000
vn 0.000000 0.000000 1.000000
vn 0.000000 0.000000 -1.000000
vn 0.000000 0.000000 -1.000000
vn 0.000000 0.000000 -1.000000
vn 0.000000 0.000000 -1.000000
vn -1.000000 0.000000 0.000000
vn -1.000000 0.000000 0.000000
vn -1.000000 0.000000 0.000000
vn -1.000000 0.000000 0.000000
vn 0.000000 1.000000 0.000000
vn 0.000000 1.000000 0.000000
vn 0.000000 1.000000 0.000000
vn 0.000000 1.000000 0.000000
vn 1.000000 0.000000 0.000000
vn 1.000000 0.000000 0.000000
vn 1.000000 0.000000 0.000000
vn 1.000000 0.000000 0.000000
vn 0.000000 -1.000000 0.000000
vn 0.000000 -1.000000 0.000000
vn 0.000000 -1.000000 0.000000
vn 0.000000 -1.000000 0.000000
vn 0.000000 0.000000 1.000000
vn 0.000000 0.000000 1.000000
vn 0.000000 0.000000 1.000000
vn 0.000000 0.000000 1.000000
vn 0.000000 0.000000 -1.000000
vn 0.000000 0.000000 -1.000000
vn 0.000000 0.000000 -1.000000
vn 0.000000 0.000000 -1.000000
vn -1.000000 0.000000 0.000000
vn -1.000000 0.000000 0.000000
vn -1.000000 0.000000 0.000000
vn -1.000000 0.000000 0.000000
vn 0.000000 1.000000 0.000000
vn 0.000000 1.000000 0.000000
vn 0.000000 1.000000 0.000000
vn 0.000000 1.000000 0.000000
vn 1.000000 0.000000 0.000000
vn 1.000000 0.000000 0.000000
vn 1.000000 0.000000 0.000000
vn 1.000000 0.000000 0.000000
vn 0.000000 -1.000000 0.000000
vn 0.000000 -1.000000 0.000000
vn 0.000000 -1.000000 0.000000
vn 0.000000 -1.000000 0.000000
vn 0.000000 0.000000 1.000000
vn 0.000000 0.000000 1.000000
vn 0.000000 0.000000 1.000000
vn 0.000000 0.000000 1.000000
vn 0.000000 0.000000 -1.000000
vn 0.000000 0.000000 -1.000000
vn 0.000000 0.000000 -1.000000
vn 0.000000 0.000000 -1.000000
vn -1.000000 0.000000 0.000000
vn -1.000000 0.000000 0.000000
vn -1.000000 0.000000 0.000000
vn -1.000000 0.000000 0.000000
vn 0.000000 1.000000 0.000000
vn 0.000000 1.000000 0.000000
vn 0.000000 1.000000 0.000000
vn 0.000000 1.000000 0.000000
vn 1.000000 0.000000 0.000000
vn 1.000000 0.000000 0.000000
vn 1.000000 0.000000 0.000000
vn 1.000000 0.000000 0.000000
vn 0.000000 -1.000000 0.000000
vn 0.000000 -1.000000 0.000000
vn 0.000000 -1.000000 0.000000
vn 0.000000 -1.000000 0.000000
vn 0.000000 0.000000 1.000000
vn 0.000000 0.000000 1.000000
vn 0.000000 0.000000 1.000000
vn 0.000000 0.000000 1.000000
vn 0.000000 0.000000 -1.000000
vn 0.000000 0.000000 -1.000000
vn 0.000000 0.000000 -1.000000
vn 0.000000 0.000000 -1.000000
s off
g Monitor
usemtl MonitorBevel:Screen
f 9/1/1 10/2/2 11/3/3 12/4/4
usemtl MonitorBevel:lambert1
f 1/5/5 2/6/6 10/7/7 9/8/8
f 2/6/9 4/9/10 11/10/11 10/7/12
f 4/9/13 3/11/14 12/12/15 11/10/16
f 3/11/17 1/5/18 9/8/19 12/12/20
f 3/13/21 4/14/22 6/15/23 5/16/24
f 5/17/25 6/18/26 8/19/27 7/20/28
f 7/21/29 8/22/30 2/23/31 1/24/32
f 2/25/33 8/26/34 6/27/35 4/28/36
f 7/29/37 1/30/38 3/31/39 5/32/40
f 13/33/41 14/34/42 16/35/43 15/36/44
f 15/37/45 16/38/46 18/39/47 17/40/48
f 17/41/49 18/42/50 20/43/51 19/44/52
f 19/45/53 20/46/54 14/47/55 13/48/56
f 14/49/57 20/50/58 18/51/59 16/52/60
f 19/53/61 13/54/62 15/55/63 17/56/64
f 21/57/65 22/58/66 24/59/67 23/60/68
f 23/61/69 24/62/70 26/63/71 25/64/72
f 25/65/73 26/66/74 28/67/75 27/68/76
f 27/69/77 28/70/78 22/71/79 21/72/80
f 22/73/81 28/74/82 26/75/83 24/76/84
f 27/77/85 21/78/86 23/79/87 25/80/88
f 29/81/89 30/82/90 32/83/91 31/84/92
f 31/85/93 32/86/94 34/87/95 33/88/96
f 33/89/97 34/90/98 36/91/99 35/92/100
f 35/93/101 36/94/102 30/95/103 29/96/104
f 30/97/105 36/98/106 34/99/107 32/100/108
f 35/101/109 29/102/110 31/103/111 33/104/112
